<svg width="156" height="48" viewBox="0 0 156 48" fill="none" xmlns="http://www.w3.org/2000/svg">
<path d="M0 37.5L2.07864 42.8863L5.70402 38.393L0 37.5ZM61.037 23.8114C58.4643 30.1261 50.4557 38.7799 39.9021 43.5339C29.3824 48.2727 16.3955 49.1115 3.79948 39.9239L3.21018 40.7318C16.153 50.1724 29.5344 49.301 40.3129 44.4457C51.0575 39.6056 59.2771 30.7813 61.963 24.1886L61.037 23.8114Z" fill="#0B2110"/>
<path d="M47.8458 4.624C48.7258 4.624 49.4978 4.796 50.1618 5.14C50.8338 5.484 51.3498 5.976 51.7098 6.616C52.0778 7.248 52.2618 7.984 52.2618 8.824C52.2618 9.664 52.0778 10.4 51.7098 11.032C51.3498 11.656 50.8338 12.14 50.1618 12.484C49.4978 12.828 48.7258 13 47.8458 13H44.9178V4.624H47.8458ZM47.7858 11.572C48.6658 11.572 49.3458 11.332 49.8258 10.852C50.3058 10.372 50.5458 9.696 50.5458 8.824C50.5458 7.952 50.3058 7.272 49.8258 6.784C49.3458 6.288 48.6658 6.04 47.7858 6.04H46.5978V11.572H47.7858ZM55.1994 5.98V8.08H58.0194V9.412H55.1994V11.632H58.3794V13H53.5194V4.612H58.3794V5.98H55.1994ZM62.7981 13.084C62.2141 13.084 61.6861 12.984 61.2141 12.784C60.7501 12.584 60.3821 12.296 60.1101 11.92C59.8381 11.544 59.6981 11.1 59.6901 10.588H61.4901C61.5141 10.932 61.6341 11.204 61.8501 11.404C62.0741 11.604 62.3781 11.704 62.7621 11.704C63.1541 11.704 63.4621 11.612 63.6861 11.428C63.9101 11.236 64.0221 10.988 64.0221 10.684C64.0221 10.436 63.9461 10.232 63.7941 10.072C63.6421 9.912 63.4501 9.788 63.2181 9.7C62.9941 9.604 62.6821 9.5 62.2821 9.388C61.7381 9.228 61.2941 9.072 60.9501 8.92C60.6141 8.76 60.3221 8.524 60.0741 8.212C59.8341 7.892 59.7141 7.468 59.7141 6.94C59.7141 6.444 59.8381 6.012 60.0861 5.644C60.3341 5.276 60.6821 4.996 61.1301 4.804C61.5781 4.604 62.0901 4.504 62.6661 4.504C63.5301 4.504 64.2301 4.716 64.7661 5.14C65.3101 5.556 65.6101 6.14 65.6661 6.892H63.8181C63.8021 6.604 63.6781 6.368 63.4461 6.184C63.2221 5.992 62.9221 5.896 62.5461 5.896C62.2181 5.896 61.9541 5.98 61.7541 6.148C61.5621 6.316 61.4661 6.56 61.4661 6.88C61.4661 7.104 61.5381 7.292 61.6821 7.444C61.8341 7.588 62.0181 7.708 62.2341 7.804C62.4581 7.892 62.7701 7.996 63.1701 8.116C63.7141 8.276 64.1581 8.436 64.5021 8.596C64.8461 8.756 65.1421 8.996 65.3901 9.316C65.6381 9.636 65.7621 10.056 65.7621 10.576C65.7621 11.024 65.6461 11.44 65.4141 11.824C65.1821 12.208 64.8421 12.516 64.3941 12.748C63.9461 12.972 63.4141 13.084 62.7981 13.084ZM66.8106 8.8C66.8106 7.976 66.9946 7.24 67.3626 6.592C67.7386 5.936 68.2466 5.428 68.8866 5.068C69.5346 4.7 70.2586 4.516 71.0586 4.516C71.9946 4.516 72.8146 4.756 73.5186 5.236C74.2226 5.716 74.7146 6.38 74.9946 7.228H73.0626C72.8706 6.828 72.5986 6.528 72.2466 6.328C71.9026 6.128 71.5026 6.028 71.0466 6.028C70.5586 6.028 70.1226 6.144 69.7386 6.376C69.3626 6.6 69.0666 6.92 68.8506 7.336C68.6426 7.752 68.5386 8.24 68.5386 8.8C68.5386 9.352 68.6426 9.84 68.8506 10.264C69.0666 10.68 69.3626 11.004 69.7386 11.236C70.1226 11.46 70.5586 11.572 71.0466 11.572C71.5026 11.572 71.9026 11.472 72.2466 11.272C72.5986 11.064 72.8706 10.76 73.0626 10.36H74.9946C74.7146 11.216 74.2226 11.884 73.5186 12.364C72.8226 12.836 72.0026 13.072 71.0586 13.072C70.2586 13.072 69.5346 12.892 68.8866 12.532C68.2466 12.164 67.7386 11.656 67.3626 11.008C66.9946 10.36 66.8106 9.624 66.8106 8.8ZM80.3176 13.084C79.5336 13.084 78.8136 12.9 78.1576 12.532C77.5016 12.164 76.9816 11.656 76.5976 11.008C76.2136 10.352 76.0216 9.612 76.0216 8.788C76.0216 7.972 76.2136 7.24 76.5976 6.592C76.9816 5.936 77.5016 5.424 78.1576 5.056C78.8136 4.688 79.5336 4.504 80.3176 4.504C81.1096 4.504 81.8296 4.688 82.4776 5.056C83.1336 5.424 83.6496 5.936 84.0256 6.592C84.4096 7.24 84.6016 7.972 84.6016 8.788C84.6016 9.612 84.4096 10.352 84.0256 11.008C83.6496 11.656 83.1336 12.164 82.4776 12.532C81.8216 12.9 81.1016 13.084 80.3176 13.084ZM80.3176 11.584C80.8216 11.584 81.2656 11.472 81.6496 11.248C82.0336 11.016 82.3336 10.688 82.5496 10.264C82.7656 9.84 82.8736 9.348 82.8736 8.788C82.8736 8.228 82.7656 7.74 82.5496 7.324C82.3336 6.9 82.0336 6.576 81.6496 6.352C81.2656 6.128 80.8216 6.016 80.3176 6.016C79.8136 6.016 79.3656 6.128 78.9736 6.352C78.5896 6.576 78.2896 6.9 78.0736 7.324C77.8576 7.74 77.7496 8.228 77.7496 8.788C77.7496 9.348 77.8576 9.84 78.0736 10.264C78.2896 10.688 78.5896 11.016 78.9736 11.248C79.3656 11.472 79.8136 11.584 80.3176 11.584ZM93.0154 13H91.3354L87.5314 7.252V13H85.8514V4.612H87.5314L91.3354 10.372V4.612H93.0154V13ZM100.376 4.624V5.98H98.1437V13H96.4637V5.98H94.2317V4.624H100.376ZM105.489 13.084C104.705 13.084 103.985 12.9 103.329 12.532C102.673 12.164 102.153 11.656 101.769 11.008C101.385 10.352 101.193 9.612 101.193 8.788C101.193 7.972 101.385 7.24 101.769 6.592C102.153 5.936 102.673 5.424 103.329 5.056C103.985 4.688 104.705 4.504 105.489 4.504C106.281 4.504 107.001 4.688 107.649 5.056C108.305 5.424 108.821 5.936 109.197 6.592C109.581 7.24 109.773 7.972 109.773 8.788C109.773 9.612 109.581 10.352 109.197 11.008C108.821 11.656 108.305 12.164 107.649 12.532C106.993 12.9 106.273 13.084 105.489 13.084ZM105.489 11.584C105.993 11.584 106.437 11.472 106.821 11.248C107.205 11.016 107.505 10.688 107.721 10.264C107.937 9.84 108.045 9.348 108.045 8.788C108.045 8.228 107.937 7.74 107.721 7.324C107.505 6.9 107.205 6.576 106.821 6.352C106.437 6.128 105.993 6.016 105.489 6.016C104.985 6.016 104.537 6.128 104.145 6.352C103.761 6.576 103.461 6.9 103.245 7.324C103.029 7.74 102.921 8.228 102.921 8.788C102.921 9.348 103.029 9.84 103.245 10.264C103.461 10.688 103.761 11.016 104.145 11.248C104.537 11.472 104.985 11.584 105.489 11.584ZM116.811 4.624C117.691 4.624 118.463 4.796 119.127 5.14C119.799 5.484 120.315 5.976 120.675 6.616C121.043 7.248 121.227 7.984 121.227 8.824C121.227 9.664 121.043 10.4 120.675 11.032C120.315 11.656 119.799 12.14 119.127 12.484C118.463 12.828 117.691 13 116.811 13H113.883V4.624H116.811ZM116.751 11.572C117.631 11.572 118.311 11.332 118.791 10.852C119.271 10.372 119.511 9.696 119.511 8.824C119.511 7.952 119.271 7.272 118.791 6.784C118.311 6.288 117.631 6.04 116.751 6.04H115.563V11.572H116.751ZM124.164 5.98V8.08H126.984V9.412H124.164V11.632H127.344V13H122.484V4.612H127.344V5.98H124.164ZM132.066 11.104C132.834 10.464 133.446 9.932 133.902 9.508C134.358 9.076 134.738 8.628 135.042 8.164C135.346 7.7 135.498 7.244 135.498 6.796C135.498 6.388 135.402 6.068 135.21 5.836C135.018 5.604 134.722 5.488 134.322 5.488C133.922 5.488 133.614 5.624 133.398 5.896C133.182 6.16 133.07 6.524 133.062 6.988H131.43C131.462 6.028 131.746 5.3 132.282 4.804C132.826 4.308 133.514 4.06 134.346 4.06C135.258 4.06 135.958 4.304 136.446 4.792C136.934 5.272 137.178 5.908 137.178 6.7C137.178 7.324 137.01 7.92 136.674 8.488C136.338 9.056 135.954 9.552 135.522 9.976C135.09 10.392 134.526 10.896 133.83 11.488H137.37V12.88H131.442V11.632L132.066 11.104ZM138.429 8.512C138.429 7.128 138.677 6.044 139.173 5.26C139.677 4.476 140.509 4.084 141.669 4.084C142.829 4.084 143.657 4.476 144.153 5.26C144.657 6.044 144.909 7.128 144.909 8.512C144.909 9.904 144.657 10.996 144.153 11.788C143.657 12.58 142.829 12.976 141.669 12.976C140.509 12.976 139.677 12.58 139.173 11.788C138.677 10.996 138.429 9.904 138.429 8.512ZM143.253 8.512C143.253 7.92 143.213 7.424 143.133 7.024C143.061 6.616 142.909 6.284 142.677 6.028C142.453 5.772 142.117 5.644 141.669 5.644C141.221 5.644 140.881 5.772 140.649 6.028C140.425 6.284 140.273 6.616 140.193 7.024C140.121 7.424 140.085 7.92 140.085 8.512C140.085 9.12 140.121 9.632 140.193 10.048C140.265 10.456 140.417 10.788 140.649 11.044C140.881 11.292 141.221 11.416 141.669 11.416C142.117 11.416 142.457 11.292 142.689 11.044C142.921 10.788 143.073 10.456 143.145 10.048C143.217 9.632 143.253 9.12 143.253 8.512ZM145.995 6.4C145.995 5.792 146.171 5.316 146.523 4.972C146.883 4.628 147.343 4.456 147.903 4.456C148.463 4.456 148.919 4.628 149.271 4.972C149.631 5.316 149.811 5.792 149.811 6.4C149.811 7.016 149.631 7.496 149.271 7.84C148.919 8.184 148.463 8.356 147.903 8.356C147.343 8.356 146.883 8.184 146.523 7.84C146.171 7.496 145.995 7.016 145.995 6.4ZM153.699 4.6L148.983 13H147.351L152.055 4.6H153.699ZM147.891 5.464C147.451 5.464 147.231 5.776 147.231 6.4C147.231 7.032 147.451 7.348 147.891 7.348C148.107 7.348 148.275 7.272 148.395 7.12C148.515 6.96 148.575 6.72 148.575 6.4C148.575 5.776 148.347 5.464 147.891 5.464ZM151.263 11.188C151.263 10.572 151.439 10.096 151.791 9.76C152.151 9.416 152.611 9.244 153.171 9.244C153.731 9.244 154.183 9.416 154.527 9.76C154.879 10.096 155.055 10.572 155.055 11.188C155.055 11.804 154.879 12.284 154.527 12.628C154.183 12.972 153.731 13.144 153.171 13.144C152.603 13.144 152.143 12.972 151.791 12.628C151.439 12.284 151.263 11.804 151.263 11.188ZM153.159 10.252C152.703 10.252 152.475 10.564 152.475 11.188C152.475 11.82 152.703 12.136 153.159 12.136C153.607 12.136 153.831 11.82 153.831 11.188C153.831 10.564 153.607 10.252 153.159 10.252Z" fill="#7732BB"/>
</svg>
