<svg width="316" height="11" viewBox="0 0 316 11" fill="none" xmlns="http://www.w3.org/2000/svg">
<path fill-rule="evenodd" clip-rule="evenodd" d="M14.713 2.97771C7.55695 3.2817 3.29386 3.55527 2.60871 3.85927C0.933899 4.52807 4.28341 4.86259 14.8652 4.89298C14.9413 4.89298 289.687 2.40014 289.763 2.40014C302.172 2.18734 303.162 1.9138 303.162 1.39701C303.162 0.728209 299.812 0.272093 292.656 0.0592945C283.216 -0.275104 67.6218 0.819319 14.713 2.97771ZM294.407 4.4977C291.057 4.5585 73.027 6.56486 67.5458 6.74725C0.401049 8.72324 -4.77565 9.02733 2.45649 10.4865C5.95837 11.1857 12.5815 11.1856 41.2817 10.3952C110.482 8.54084 307.501 8.32816 314.428 7.32497C317.626 6.83857 318.083 4.1633 294.407 4.4977Z" fill="#32EAA5"/>
</svg>
    