<svg width="85" height="85" viewBox="0 0 85 85" fill="none" xmlns="http://www.w3.org/2000/svg">
<path d="M31.9894 30.197C32.1774 27.283 33.2897 25.0113 35.3264 23.382C37.3944 21.7527 40.0264 20.938 43.2224 20.938C45.4157 20.938 47.3114 21.3297 48.9094 22.113C50.5074 22.8963 51.7137 23.9617 52.5284 25.309C53.3431 26.6563 53.7504 28.176 53.7504 29.868C53.7504 31.8107 53.2334 33.4713 52.1994 34.85C51.1654 36.2287 49.9277 37.153 48.4864 37.623V37.811C50.3351 38.375 51.7764 39.409 52.8104 40.913C53.8444 42.3857 54.3614 44.2813 54.3614 46.6C54.3614 48.4487 53.9384 50.0937 53.0924 51.535C52.2464 52.9763 50.9931 54.12 49.3324 54.966C47.6717 55.7807 45.6821 56.188 43.3634 56.188C39.9794 56.188 37.1907 55.3263 34.9974 53.603C32.8354 51.8483 31.6761 49.3417 31.5194 46.083H36.6894C36.8147 47.7437 37.4571 49.1067 38.6164 50.172C39.7757 51.206 41.3424 51.723 43.3164 51.723C45.2277 51.723 46.7004 51.206 47.7344 50.172C48.7684 49.1067 49.2854 47.7437 49.2854 46.083C49.2854 43.8897 48.5804 42.3387 47.1704 41.43C45.7917 40.49 43.6611 40.02 40.7784 40.02H39.5564V35.602H40.8254C43.3634 35.5707 45.2904 35.1477 46.6064 34.333C47.9537 33.5183 48.6274 32.2337 48.6274 30.479C48.6274 28.975 48.1417 27.7843 47.1704 26.907C46.1991 25.9983 44.8204 25.544 43.0344 25.544C41.2797 25.544 39.9167 25.9983 38.9454 26.907C37.9741 27.7843 37.3944 28.881 37.2064 30.197H31.9894Z" fill="#32EAA5"/>
<g filter="url(#filter0_d_0_1)">
<path d="M79 38.5C79 58.6584 62.6584 75 42.5 75C22.3416 75 6 58.6584 6 38.5C6 18.3416 22.3416 2 42.5 2C62.6584 2 79 18.3416 79 38.5Z" stroke="#32EAA5" stroke-width="4" shape-rendering="crispEdges"/>
</g>
<defs>
<filter id="filter0_d_0_1" x="0" y="0" width="85" height="85" filterUnits="userSpaceOnUse" color-interpolation-filters="sRGB">
<feFlood flood-opacity="0" result="BackgroundImageFix"/>
<feColorMatrix in="SourceAlpha" type="matrix" values="0 0 0 0 0 0 0 0 0 0 0 0 0 0 0 0 0 0 127 0" result="hardAlpha"/>
<feOffset dy="4"/>
<feGaussianBlur stdDeviation="2"/>
<feComposite in2="hardAlpha" operator="out"/>
<feColorMatrix type="matrix" values="0 0 0 0 0.960784 0 0 0 0 0.960784 0 0 0 0 0.960784 0 0 0 1 0"/>
<feBlend mode="normal" in2="BackgroundImageFix" result="effect1_dropShadow_0_1"/>
<feBlend mode="normal" in="SourceGraphic" in2="effect1_dropShadow_0_1" result="shape"/>
</filter>
</defs>
</svg>
