<svg xmlns="http://www.w3.org/2000/svg" xmlns:xlink="http://www.w3.org/1999/xlink" width="2160" transform="scale(2.3)" zoomAndPan="magnify" viewBox="0 0 810 809.999993" height="1080" preserveAspectRatio="xMidYMid meet" version="1.0">
    <defs><g/><clipPath id="026899e94c"><path d="M 460.007812 293.640625 L 665.121094 293.640625 L 665.121094 345.691406 L 460.007812 345.691406 Z M 460.007812 293.640625 " clip-rule="nonzero"/></clipPath></defs><g clip-path="url(#026899e94c)"><path fill="#32eaa5" d="M 460.007812 293.640625 L 665.121094 293.640625 L 665.121094 345.691406 L 460.007812 345.691406 Z M 460.007812 293.640625 " fill-opacity="1" fill-rule="nonzero"/></g><g fill="#000000" fill-opacity="1"><g transform="translate(149.560512, 334.291966)"><g><path d="M 24.671875 -30.53125 L 24.671875 -24.578125 L 16.578125 -24.578125 L 16.578125 0 L 9.140625 0 L 9.140625 -24.578125 L 1.046875 -24.578125 L 1.046875 -30.53125 Z M 24.671875 -30.53125 "/></g></g></g><g fill="#000000" fill-opacity="1"><g transform="translate(184.484011, 334.291966)"><g><path d="M 18.265625 0 L 11.921875 -11.53125 L 10.140625 -11.53125 L 10.140625 0 L 2.703125 0 L 2.703125 -30.53125 L 15.1875 -30.53125 C 17.59375 -30.53125 19.640625 -30.109375 21.328125 -29.265625 C 23.023438 -28.429688 24.296875 -27.28125 25.140625 -25.8125 C 25.984375 -24.351562 26.40625 -22.722656 26.40625 -20.921875 C 26.40625 -18.890625 25.832031 -17.078125 24.6875 -15.484375 C 23.539062 -13.890625 21.851562 -12.757812 19.625 -12.09375 L 26.671875 0 Z M 10.140625 -16.796875 L 14.75 -16.796875 C 16.113281 -16.796875 17.132812 -17.128906 17.8125 -17.796875 C 18.488281 -18.460938 18.828125 -19.40625 18.828125 -20.625 C 18.828125 -21.78125 18.488281 -22.691406 17.8125 -23.359375 C 17.132812 -24.023438 16.113281 -24.359375 14.75 -24.359375 L 10.140625 -24.359375 Z M 10.140625 -16.796875 "/></g></g></g><g fill="#000000" fill-opacity="1"><g transform="translate(222.060295, 334.291966)"><g><path d="M 21.703125 -5.390625 L 10.3125 -5.390625 L 8.484375 0 L 0.703125 0 L 11.75 -30.53125 L 20.359375 -30.53125 L 31.40625 0 L 23.53125 0 Z M 19.796875 -11.140625 L 16.015625 -22.3125 L 12.265625 -11.140625 Z M 19.796875 -11.140625 "/></g></g></g><g fill="#000000" fill-opacity="1"><g transform="translate(263.333078, 334.291966)"><g><path d="M 21.1875 -15.65625 C 22.957031 -15.28125 24.378906 -14.40625 25.453125 -13.03125 C 26.523438 -11.65625 27.0625 -10.082031 27.0625 -8.3125 C 27.0625 -5.757812 26.164062 -3.734375 24.375 -2.234375 C 22.59375 -0.742188 20.109375 0 16.921875 0 L 2.703125 0 L 2.703125 -30.53125 L 16.4375 -30.53125 C 19.539062 -30.53125 21.96875 -29.820312 23.71875 -28.40625 C 25.476562 -26.988281 26.359375 -25.0625 26.359375 -22.625 C 26.359375 -20.820312 25.882812 -19.328125 24.9375 -18.140625 C 24 -16.953125 22.75 -16.125 21.1875 -15.65625 Z M 10.140625 -18.1875 L 15 -18.1875 C 16.21875 -18.1875 17.15625 -18.453125 17.8125 -18.984375 C 18.46875 -19.523438 18.796875 -20.316406 18.796875 -21.359375 C 18.796875 -22.398438 18.46875 -23.195312 17.8125 -23.75 C 17.15625 -24.300781 16.21875 -24.578125 15 -24.578125 L 10.140625 -24.578125 Z M 15.609375 -6 C 16.859375 -6 17.820312 -6.28125 18.5 -6.84375 C 19.1875 -7.414062 19.53125 -8.238281 19.53125 -9.3125 C 19.53125 -10.382812 19.175781 -11.222656 18.46875 -11.828125 C 17.757812 -12.441406 16.78125 -12.75 15.53125 -12.75 L 10.140625 -12.75 L 10.140625 -6 Z M 15.609375 -6 "/></g></g></g><g fill="#000000" fill-opacity="1"><g transform="translate(301.213776, 334.291966)"><g><path d="M 21.703125 -5.390625 L 10.3125 -5.390625 L 8.484375 0 L 0.703125 0 L 11.75 -30.53125 L 20.359375 -30.53125 L 31.40625 0 L 23.53125 0 Z M 19.796875 -11.140625 L 16.015625 -22.3125 L 12.265625 -11.140625 Z M 19.796875 -11.140625 "/></g></g></g><g fill="#000000" fill-opacity="1"><g transform="translate(342.486559, 334.291966)"><g><path d="M 10.140625 -5.734375 L 19.875 -5.734375 L 19.875 0 L 2.703125 0 L 2.703125 -30.53125 L 10.140625 -30.53125 Z M 10.140625 -5.734375 "/></g></g></g><g fill="#000000" fill-opacity="1"><g transform="translate(372.452408, 334.291966)"><g><path d="M 29.140625 -30.53125 L 29.140625 0 L 21.703125 0 L 21.703125 -12.578125 L 10.140625 -12.578125 L 10.140625 0 L 2.703125 0 L 2.703125 -30.53125 L 10.140625 -30.53125 L 10.140625 -18.578125 L 21.703125 -18.578125 L 21.703125 -30.53125 Z M 29.140625 -30.53125 "/></g></g></g><g fill="#000000" fill-opacity="1"><g transform="translate(413.464277, 334.291966)"><g><path d="M 17.140625 0.296875 C 14.265625 0.296875 11.628906 -0.367188 9.234375 -1.703125 C 6.847656 -3.035156 4.953125 -4.894531 3.546875 -7.28125 C 2.140625 -9.675781 1.4375 -12.367188 1.4375 -15.359375 C 1.4375 -18.347656 2.140625 -21.03125 3.546875 -23.40625 C 4.953125 -25.78125 6.847656 -27.632812 9.234375 -28.96875 C 11.628906 -30.300781 14.265625 -30.96875 17.140625 -30.96875 C 20.015625 -30.96875 22.644531 -30.300781 25.03125 -28.96875 C 27.425781 -27.632812 29.3125 -25.78125 30.6875 -23.40625 C 32.0625 -21.03125 32.75 -18.347656 32.75 -15.359375 C 32.75 -12.367188 32.050781 -9.675781 30.65625 -7.28125 C 29.269531 -4.894531 27.390625 -3.035156 25.015625 -1.703125 C 22.640625 -0.367188 20.015625 0.296875 17.140625 0.296875 Z M 17.140625 -6.484375 C 19.578125 -6.484375 21.523438 -7.296875 22.984375 -8.921875 C 24.453125 -10.546875 25.1875 -12.691406 25.1875 -15.359375 C 25.1875 -18.054688 24.453125 -20.207031 22.984375 -21.8125 C 21.523438 -23.425781 19.578125 -24.234375 17.140625 -24.234375 C 14.671875 -24.234375 12.703125 -23.429688 11.234375 -21.828125 C 9.773438 -20.234375 9.046875 -18.078125 9.046875 -15.359375 C 9.046875 -12.660156 9.773438 -10.503906 11.234375 -8.890625 C 12.703125 -7.285156 14.671875 -6.484375 17.140625 -6.484375 Z M 17.140625 -6.484375 "/></g></g></g><g fill="#000000" fill-opacity="1"><g transform="translate(456.867985, 334.291966)"><g/></g></g><g fill="#ffffff" fill-opacity="1"><g transform="translate(475.318309, 334.291966)"><g><path d="M 10.140625 -5.734375 L 19.875 -5.734375 L 19.875 0 L 2.703125 0 L 2.703125 -30.53125 L 10.140625 -30.53125 Z M 10.140625 -5.734375 "/></g></g></g><g fill="#ffffff" fill-opacity="1"><g transform="translate(505.284147, 334.291966)"><g><path d="M 10.140625 -24.578125 L 10.140625 -18.40625 L 20.09375 -18.40625 L 20.09375 -12.65625 L 10.140625 -12.65625 L 10.140625 -5.953125 L 21.40625 -5.953125 L 21.40625 0 L 2.703125 0 L 2.703125 -30.53125 L 21.40625 -30.53125 L 21.40625 -24.578125 Z M 10.140625 -24.578125 "/></g></g></g><g fill="#ffffff" fill-opacity="1"><g transform="translate(538.033233, 334.291966)"><g><path d="M 22.96875 -20.875 C 22.414062 -21.894531 21.625 -22.671875 20.59375 -23.203125 C 19.5625 -23.742188 18.351562 -24.015625 16.96875 -24.015625 C 14.5625 -24.015625 12.628906 -23.222656 11.171875 -21.640625 C 9.722656 -20.054688 9 -17.945312 9 -15.3125 C 9 -12.5 9.757812 -10.300781 11.28125 -8.71875 C 12.8125 -7.132812 14.910156 -6.34375 17.578125 -6.34375 C 19.398438 -6.34375 20.941406 -6.804688 22.203125 -7.734375 C 23.460938 -8.671875 24.382812 -10.007812 24.96875 -11.75 L 15.53125 -11.75 L 15.53125 -17.21875 L 31.71875 -17.21875 L 31.71875 -10.3125 C 31.164062 -8.457031 30.226562 -6.726562 28.90625 -5.125 C 27.582031 -3.53125 25.90625 -2.238281 23.875 -1.25 C 21.851562 -0.269531 19.566406 0.21875 17.015625 0.21875 C 13.992188 0.21875 11.300781 -0.4375 8.9375 -1.75 C 6.570312 -3.070312 4.726562 -4.90625 3.40625 -7.25 C 2.09375 -9.601562 1.4375 -12.289062 1.4375 -15.3125 C 1.4375 -18.332031 2.09375 -21.019531 3.40625 -23.375 C 4.726562 -25.738281 6.5625 -27.582031 8.90625 -28.90625 C 11.257812 -30.226562 13.945312 -30.890625 16.96875 -30.890625 C 20.625 -30.890625 23.703125 -30.003906 26.203125 -28.234375 C 28.710938 -26.460938 30.375 -24.007812 31.1875 -20.875 Z M 22.96875 -20.875 "/></g></g></g><g fill="#ffffff" fill-opacity="1"><g transform="translate(580.393228, 334.291966)"><g><path d="M 21.703125 -5.390625 L 10.3125 -5.390625 L 8.484375 0 L 0.703125 0 L 11.75 -30.53125 L 20.359375 -30.53125 L 31.40625 0 L 23.53125 0 Z M 19.796875 -11.140625 L 16.015625 -22.3125 L 12.265625 -11.140625 Z M 19.796875 -11.140625 "/></g></g></g><g fill="#ffffff" fill-opacity="1"><g transform="translate(621.666011, 334.291966)"><g><path d="M 10.140625 -5.734375 L 19.875 -5.734375 L 19.875 0 L 2.703125 0 L 2.703125 -30.53125 L 10.140625 -30.53125 Z M 10.140625 -5.734375 "/></g></g></g></svg>